<svg width="24" height="24" viewBox="0 0 24 24" fill="none" xmlns="http://www.w3.org/2000/svg">
<g clip-path="url(#clip0_1107_12550)">
<path d="M13.7295 21C13.5537 21.3031 13.3014 21.5547 12.9978 21.7295C12.6941 21.9044 12.3499 21.9965 11.9995 21.9965C11.6492 21.9965 11.3049 21.9044 11.0013 21.7295C10.6977 21.5547 10.4453 21.3031 10.2695 21" stroke="white" stroke-width="2" stroke-linecap="round" stroke-linejoin="round"/>
<path d="M18.6303 13C18.1855 11.3714 17.9734 9.68804 18.0003 8" stroke="white" stroke-width="2" stroke-linecap="round" stroke-linejoin="round"/>
<path d="M6.26 6.25977C6.08627 6.82338 5.99861 7.40999 6 7.99977C6 14.9998 3 16.9998 3 16.9998H17" stroke="white" stroke-width="2" stroke-linecap="round" stroke-linejoin="round"/>
<path d="M17.9999 7.99914C18.0015 6.9122 17.7079 5.84524 17.1503 4.91223C16.5927 3.97922 15.7921 3.21519 14.834 2.70178C13.876 2.18836 12.7965 1.94483 11.7108 1.9972C10.6251 2.04958 9.57409 2.39589 8.66992 2.99914" stroke="white" stroke-width="2" stroke-linecap="round" stroke-linejoin="round"/>
<path d="M1 1L23 23" stroke="white" stroke-width="2" stroke-linecap="round" stroke-linejoin="round"/>
</g>
<defs>
<clipPath id="clip0_1107_12550">
<rect width="24" height="24" fill="white"/>
</clipPath>
</defs>
</svg>
