<svg width="24" height="24" viewBox="0 0 24 24" fill="none" xmlns="http://www.w3.org/2000/svg">
<g clip-path="url(#clip0_1107_13017)">
<path d="M5.18945 12.8101C3.5053 10.2131 2.4538 7.25726 2.11944 4.1801C2.09446 3.90356 2.12732 3.62486 2.21595 3.36172C2.30457 3.09859 2.44702 2.85679 2.63421 2.65172C2.82141 2.44665 3.04925 2.28281 3.30324 2.17062C3.55722 2.05843 3.83179 2.00036 4.10945 2.0001H7.10945C7.59475 1.99532 8.06524 2.16718 8.43321 2.48363C8.80118 2.80008 9.04152 3.23954 9.10944 3.7201C9.23607 4.68016 9.47089 5.62282 9.80945 6.5301C9.94399 6.88802 9.97311 7.27701 9.89335 7.65098C9.8136 8.02494 9.62831 8.36821 9.35944 8.6401L8.08945 9.9101M10.6794 13.3101C11.6943 14.3258 12.8413 15.2004 14.0894 15.9101L15.3594 14.6401C15.6313 14.3712 15.9746 14.1859 16.3486 14.1062C16.7225 14.0264 17.1115 14.0556 17.4694 14.1901C18.3767 14.5286 19.3194 14.7635 20.2794 14.8901C20.76 14.958 21.1995 15.1984 21.5159 15.5663C21.8324 15.9343 22.0042 16.4048 21.9994 16.8901V19.8901C22.0006 20.1686 21.9435 20.4443 21.832 20.6994C21.7204 20.9546 21.5567 21.1837 21.3515 21.372C21.1463 21.5602 20.904 21.7036 20.6402 21.7928C20.3764 21.882 20.0968 21.9152 19.8194 21.8901C16.7423 21.5557 13.7864 20.5042 11.1894 18.8201C9.98471 18.0552 8.86797 17.1597 7.85945 16.1501L10.6794 13.3101Z" stroke="white" stroke-width="2" stroke-linecap="round" stroke-linejoin="round"/>
<path d="M23 1L1 23" stroke="white" stroke-width="2" stroke-linecap="round" stroke-linejoin="round"/>
</g>
<defs>
<clipPath id="clip0_1107_13017">
<rect width="24" height="24" fill="white"/>
</clipPath>
</defs>
</svg>
