<svg width="24" height="24" viewBox="0 0 24 24" fill="none" xmlns="http://www.w3.org/2000/svg">
<g clip-path="url(#clip0_1107_12678)">
<path d="M1 1L23 23" stroke="white" stroke-width="2" stroke-linecap="round" stroke-linejoin="round"/>
<path d="M12 20H12.01" stroke="white" stroke-width="2" stroke-linecap="round" stroke-linejoin="round"/>
<path d="M8.5293 16.1107C9.5445 15.3894 10.759 15.002 12.0043 15.002C13.2496 15.002 14.4641 15.3894 15.4793 16.1107" stroke="white" stroke-width="2" stroke-linecap="round" stroke-linejoin="round"/>
<path d="M16.7207 11.0605C17.5398 11.4603 18.3057 11.9608 19.0007 12.5505" stroke="white" stroke-width="2" stroke-linecap="round" stroke-linejoin="round"/>
<path d="M5 12.5502C6.48208 11.311 8.26587 10.4864 10.17 10.1602" stroke="white" stroke-width="2" stroke-linecap="round" stroke-linejoin="round"/>
<path d="M1.41992 8.99914C2.80709 7.77299 4.39762 6.79837 6.11992 6.11914" stroke="white" stroke-width="2" stroke-linecap="round" stroke-linejoin="round"/>
<path d="M10.7109 5.04974C12.8534 4.87711 15.0086 5.1379 17.048 5.81656C19.0874 6.49521 20.9691 7.57782 22.5809 8.99974" stroke="white" stroke-width="2" stroke-linecap="round" stroke-linejoin="round"/>
</g>
<defs>
<clipPath id="clip0_1107_12678">
<rect width="24" height="24" fill="white"/>
</clipPath>
</defs>
</svg>
