<svg width="135" height="78" viewBox="0 0 135 78" fill="none" xmlns="http://www.w3.org/2000/svg">
<path d="M0 73.2599C0.375069 75.7631 2.78622 78 6.40296 78C11.3592 78 13.3149 74.7245 13.3149 71.1294V59.4388H9.88574V60.9834C9.4303 60.1046 8.22472 59.1991 6.13505 59.1991C2.51832 59.1991 0 62.1285 0 65.5904C0 69.2653 2.62548 71.955 6.13505 71.955C8.03718 71.955 9.26955 71.1294 9.80537 70.2773V71.236C9.80537 73.7658 8.54621 74.8843 6.29579 74.8843C4.60799 74.8843 3.45599 73.8457 3.21487 72.4077L0 73.2599ZM6.75124 68.9191C4.90268 68.9191 3.58994 67.6409 3.58994 65.5904C3.58994 63.5665 4.98306 62.2882 6.75124 62.2882C8.46584 62.2882 9.85895 63.5665 9.85895 65.5904C9.85895 67.6143 8.573 68.9191 6.75124 68.9191Z" fill="#6966FF"/>
<path d="M20.5086 59.4388H16.9455V72.5408H20.5086V61.8355C20.589 63.0605 21.607 63.9926 22.893 63.9926C24.2325 63.9926 25.2774 62.954 25.2774 61.6225C25.2774 60.291 24.2325 59.2524 22.893 59.2524C21.607 59.2524 20.589 60.2111 20.5086 61.4627V59.4388Z" fill="#6966FF"/>
<path d="M26.6336 68.9724C26.6336 71.0229 28.3482 72.9137 31.1613 72.9137C33.117 72.9137 34.3761 72.0082 35.0459 70.9697C35.0459 71.4756 35.0995 72.1947 35.1798 72.5408H38.4483C38.3679 72.0881 38.2876 71.1561 38.2876 70.4637V64.0192C38.2876 61.3828 36.7337 59.0394 32.5544 59.0394C29.018 59.0394 27.1159 61.3029 26.9015 63.3534L30.0628 64.0192C30.17 62.8741 31.0273 61.8888 32.5812 61.8888C34.0814 61.8888 34.8048 62.6611 34.8048 63.5931C34.8048 64.0458 34.5637 64.4186 33.8135 64.5252L30.5719 65.0045C28.375 65.3241 26.6336 66.629 26.6336 68.9724ZM31.9114 70.2773C30.7594 70.2773 30.1968 69.5316 30.1968 68.7594C30.1968 67.7474 30.9201 67.2414 31.831 67.1083L34.8048 66.6556V67.2414C34.8048 69.5583 33.4117 70.2773 31.9114 70.2773Z" fill="#6966FF"/>
<path d="M45.3894 65.0045C45.3894 63.4866 46.3002 62.2882 47.8541 62.2882C49.5687 62.2882 50.2921 63.4333 50.2921 64.898V72.5408H53.8552V64.2855C53.8552 61.4094 52.3549 59.0926 49.0865 59.0926C47.6666 59.0926 46.0859 59.7051 45.2822 61.0632V59.4388H41.8262V72.5408H45.3894V65.0045Z" fill="#6966FF"/>
<path d="M62.0016 55.5242H58.7868V57.3617C58.7868 58.5334 58.1438 59.4388 56.7507 59.4388H56.0809V62.5812H58.4653V68.6795C58.4653 71.2093 60.0727 72.7273 62.6446 72.7273C63.6895 72.7273 64.3324 72.5408 64.6539 72.4077V69.4784C64.4664 69.5316 63.9841 69.5849 63.5555 69.5849C62.5375 69.5849 62.0016 69.2121 62.0016 68.067V62.5812H64.6539V59.4388H62.0016V55.5242Z" fill="#6966FF"/>
<path d="M66.6339 68.8925C66.7947 70.3838 68.161 72.9403 72.126 72.9403C75.582 72.9403 77.243 70.7566 77.243 68.6262C77.243 66.7088 75.9303 65.1377 73.3316 64.6051L71.4562 64.2056C70.7329 64.0725 70.2506 63.673 70.2506 63.0339C70.2506 62.2882 71.0008 61.729 71.9384 61.729C73.4387 61.729 74.0013 62.7143 74.1085 63.4866L77.0822 62.8208C76.9215 61.4094 75.6623 59.0394 71.9117 59.0394C69.0719 59.0394 66.9822 60.9834 66.9822 63.3268C66.9822 65.1643 68.1342 66.6822 70.6793 67.2414L72.4207 67.6409C73.4387 67.8539 73.8406 68.3333 73.8406 68.9191C73.8406 69.6115 73.278 70.224 72.0992 70.224C70.5453 70.224 69.7684 69.2653 69.688 68.2268L66.6339 68.8925Z" fill="#6966FF"/>
<path fill-rule="evenodd" clip-rule="evenodd" d="M104.374 5.48413C104.374 5.23967 104.174 5.0415 103.928 5.0415C103.682 5.0415 103.483 5.23967 103.483 5.48413V5.51214C103.483 5.75659 103.682 5.95476 103.928 5.95476C104.174 5.95476 104.374 5.75659 104.374 5.51214V5.48413ZM104.374 9.99453C104.374 9.75008 104.174 9.55191 103.928 9.55191C103.682 9.55191 103.483 9.75008 103.483 9.99453V10.0506C103.483 10.295 103.682 10.4932 103.928 10.4932C104.174 10.4932 104.374 10.295 104.374 10.0506V9.99453ZM104.374 14.533C104.374 14.2885 104.174 14.0903 103.928 14.0903C103.682 14.0903 103.483 14.2885 103.483 14.533V14.589C103.483 14.8334 103.682 15.0316 103.928 15.0316C104.174 15.0316 104.374 14.8334 104.374 14.589V14.533ZM104.374 19.0714C104.374 18.8269 104.174 18.6288 103.928 18.6288C103.682 18.6288 103.483 18.8269 103.483 19.0714V19.0994C103.483 19.3438 103.682 19.542 103.928 19.542C104.174 19.542 104.374 19.3438 104.374 19.0994V19.0714ZM104.374 41.4628C104.374 41.2184 104.174 41.0202 103.928 41.0202C103.682 41.0202 103.483 41.2184 103.483 41.4628V41.4927C103.483 41.7372 103.682 41.9354 103.928 41.9354C104.174 41.9354 104.374 41.7372 104.374 41.4927V41.4628ZM104.374 46.2761C104.374 46.0317 104.174 45.8335 103.928 45.8335C103.682 45.8335 103.483 46.0317 103.483 46.2761V46.3359C103.483 46.5804 103.682 46.7786 103.928 46.7786C104.174 46.7786 104.374 46.5804 104.374 46.3359V46.2761ZM104.374 51.1193C104.374 50.8749 104.174 50.6767 103.928 50.6767C103.682 50.6767 103.483 50.8749 103.483 51.1193V51.1791C103.483 51.4236 103.682 51.6218 103.928 51.6218C104.174 51.6218 104.374 51.4236 104.374 51.1791V51.1193ZM104.374 55.9625C104.374 55.7181 104.174 55.5199 103.928 55.5199C103.682 55.5199 103.483 55.7181 103.483 55.9625V56.0223C103.483 56.2668 103.682 56.465 103.928 56.465C104.174 56.465 104.374 56.2668 104.374 56.0223V55.9625ZM104.374 60.8057C104.374 60.5613 104.174 60.3631 103.928 60.3631C103.682 60.3631 103.483 60.5613 103.483 60.8057V60.8356C103.483 61.0801 103.682 61.2783 103.928 61.2783C104.174 61.2783 104.374 61.0801 104.374 60.8356V60.8057ZM134.48 30.9096C134.48 31.1541 134.28 31.3522 134.035 31.3522H134.008C133.762 31.3522 133.562 31.1541 133.562 30.9096C133.562 30.6652 133.762 30.467 134.008 30.467H134.035C134.28 30.467 134.48 30.6652 134.48 30.9096ZM130.142 30.9096C130.142 31.1541 129.943 31.3522 129.697 31.3522H129.643C129.397 31.3522 129.198 31.1541 129.198 30.9096C129.198 30.6652 129.397 30.467 129.643 30.467H129.697C129.943 30.467 130.142 30.6652 130.142 30.9096ZM125.778 30.9096C125.778 31.1541 125.578 31.3522 125.332 31.3522H125.279C125.033 31.3522 124.833 31.1541 124.833 30.9096C124.833 30.6652 125.033 30.467 125.279 30.467H125.332C125.578 30.467 125.778 30.6652 125.778 30.9096ZM121.413 30.9096C121.413 31.1541 121.214 31.3522 120.968 31.3522H120.914C120.668 31.3522 120.469 31.1541 120.469 30.9096C120.469 30.6652 120.668 30.467 120.914 30.467H120.968C121.214 30.467 121.413 30.6652 121.413 30.9096ZM117.049 30.9096C117.049 31.1541 116.849 31.3522 116.603 31.3522H116.549C116.304 31.3522 116.104 31.1541 116.104 30.9096C116.104 30.6652 116.304 30.467 116.549 30.467H116.603C116.849 30.467 117.049 30.6652 117.049 30.9096ZM112.684 30.9096C112.684 31.1541 112.485 31.3522 112.239 31.3522H112.212C111.966 31.3522 111.767 31.1541 111.767 30.9096C111.767 30.6652 111.966 30.467 112.212 30.467H112.239C112.485 30.467 112.684 30.6652 112.684 30.9096ZM95.8351 31.3522C96.081 31.3522 96.2804 31.1541 96.2804 30.9096C96.2804 30.6652 96.081 30.467 95.8351 30.467H95.8079C95.562 30.467 95.3626 30.6652 95.3626 30.9096C95.3626 31.1541 95.562 31.3522 95.8079 31.3522H95.8351ZM91.4596 31.3522C91.7055 31.3522 91.9049 31.1541 91.9049 30.9096C91.9049 30.6652 91.7055 30.467 91.4596 30.467H91.4053C91.1593 30.467 90.96 30.6652 90.96 30.9096C90.96 31.1541 91.1593 31.3522 91.4053 31.3522H91.4596ZM87.0569 31.3522C87.3029 31.3522 87.5022 31.1541 87.5022 30.9096C87.5022 30.6652 87.3029 30.467 87.0569 30.467H87.0026C86.7567 30.467 86.5573 30.6652 86.5573 30.9096C86.5573 31.1541 86.7567 31.3522 87.0026 31.3522H87.0569ZM82.6543 31.3522C82.9002 31.3522 83.0995 31.1541 83.0995 30.9096C83.0995 30.6652 82.9002 30.467 82.6543 30.467H82.5999C82.354 30.467 82.1546 30.6652 82.1546 30.9096C82.1546 31.1541 82.354 31.3522 82.5999 31.3522H82.6543ZM78.2516 31.3522C78.4975 31.3522 78.6969 31.1541 78.6969 30.9096C78.6969 30.6652 78.4975 30.467 78.2516 30.467H78.1972C77.9513 30.467 77.752 30.6652 77.752 30.9096C77.752 31.1541 77.9513 31.3522 78.1972 31.3522H78.2516Z" fill="#55555E"/>
<path fill-rule="evenodd" clip-rule="evenodd" d="M103.899 0.541016H103.958C104.204 0.541249 104.403 0.739606 104.403 0.98406C104.403 1.22851 104.203 1.42649 103.957 1.42626H103.9C103.654 1.42649 103.454 1.22851 103.454 0.984059C103.454 0.739606 103.653 0.541249 103.899 0.541016ZM99.6899 1.27481C99.7279 1.51633 99.5617 1.7427 99.3187 1.78042L99.2617 1.78932C99.0188 1.82751 98.7907 1.66273 98.7523 1.42127C98.7139 1.17982 98.8797 0.953131 99.1226 0.914944L99.1813 0.905777C99.4243 0.868061 99.652 1.03328 99.6899 1.27481ZM108.167 1.27481C108.205 1.03328 108.433 0.868061 108.676 0.905777L108.734 0.914945C108.977 0.953131 109.143 1.17982 109.105 1.42128C109.066 1.66273 108.838 1.82751 108.595 1.78932L108.538 1.78042C108.295 1.7427 108.129 1.51633 108.167 1.27481ZM112.776 2.29443C112.852 2.06185 113.103 1.93433 113.337 2.0096L113.393 2.0278C113.627 2.10353 113.755 2.35334 113.679 2.58577C113.602 2.8182 113.351 2.94523 113.117 2.8695L113.063 2.85183C112.829 2.77656 112.7 2.527 112.776 2.29443ZM95.0809 2.29443C95.1566 2.527 95.0283 2.77656 94.7943 2.85183L94.7396 2.8695C94.5058 2.94523 94.2544 2.8182 94.1783 2.58577C94.1021 2.35334 94.2299 2.10353 94.4637 2.0278L94.5201 2.0096C94.7541 1.93433 95.0051 2.06185 95.0809 2.29443ZM117.165 4.02301C117.277 3.80518 117.545 3.71853 117.764 3.82948L117.817 3.85624C118.036 3.96761 118.123 4.2343 118.011 4.45191C117.899 4.66952 117.63 4.75565 117.411 4.64428L117.36 4.6183C117.141 4.50736 117.054 4.24084 117.165 4.02301ZM90.6914 4.02301C90.803 4.24084 90.7159 4.50736 90.4967 4.6183L90.4455 4.64428C90.2266 4.75565 89.9583 4.66952 89.8463 4.45191C89.7342 4.2343 89.8209 3.96761 90.0398 3.85624L90.0925 3.82948C90.3117 3.71854 90.5798 3.80518 90.6914 4.02301ZM86.6297 6.41527C86.7742 6.61306 86.7301 6.88985 86.5311 7.03351L86.4847 7.06712C86.286 7.21115 86.0074 7.1678 85.8625 6.97029C85.7176 6.77278 85.7612 6.4959 85.9599 6.35187L86.0078 6.31725C86.2067 6.17359 86.4852 6.21748 86.6297 6.41527ZM121.227 6.41527C121.372 6.21748 121.65 6.17359 121.849 6.31725L121.897 6.35187C122.096 6.4959 122.139 6.77278 121.994 6.97029C121.849 7.1678 121.571 7.21115 121.372 7.06712L121.326 7.03351C121.127 6.88985 121.083 6.61306 121.227 6.41527ZM82.9933 9.40841C83.167 9.58143 83.1667 9.86168 82.9927 10.0344L82.952 10.0748C82.7783 10.2478 82.4963 10.2481 82.3223 10.0754C82.1482 9.90269 82.1479 9.62244 82.3217 9.44942L82.3635 9.40781C82.5376 9.23512 82.8195 9.23539 82.9933 9.40841ZM124.864 9.40841C125.037 9.23539 125.319 9.23512 125.493 9.40781L125.535 9.44942C125.709 9.62244 125.709 9.90269 125.535 10.0754C125.361 10.2481 125.079 10.2478 124.905 10.0748L124.864 10.0344C124.69 9.86168 124.69 9.58143 124.864 9.40841ZM79.8695 12.9274C80.0682 13.0715 80.1118 13.3483 79.9669 13.5459L79.9331 13.592C79.7885 13.7898 79.5101 13.8337 79.3111 13.6901C79.1121 13.5464 79.068 13.2696 79.2125 13.0718L79.2473 13.0243C79.3922 12.8267 79.6708 12.7834 79.8695 12.9274ZM127.987 12.9274C128.186 12.7834 128.465 12.8267 128.61 13.0243L128.644 13.0718C128.789 13.2696 128.745 13.5464 128.546 13.6901C128.347 13.8337 128.068 13.7898 127.924 13.592L127.89 13.5459C127.745 13.3483 127.789 13.0715 127.987 12.9274ZM130.521 16.8874C130.74 16.776 131.008 16.8621 131.12 17.0797L131.147 17.1321C131.259 17.35 131.172 17.6165 130.952 17.7274C130.733 17.8384 130.465 17.7517 130.354 17.5339L130.327 17.483C130.215 17.2654 130.302 16.9987 130.521 16.8874ZM132.398 21.1934C132.632 21.1177 132.884 21.2447 132.96 21.4771L132.978 21.5332C133.054 21.7658 132.925 22.0153 132.691 22.0906C132.457 22.1659 132.206 22.0383 132.131 21.8058L132.113 21.7514C132.037 21.5189 132.165 21.2691 132.398 21.1934ZM133.57 25.7401C133.813 25.7019 134.041 25.8667 134.079 26.1081L134.088 26.1664C134.126 26.408 133.96 26.6343 133.717 26.6721C133.474 26.7098 133.247 26.5445 133.209 26.303L133.2 26.2464C133.161 26.0049 133.327 25.7782 133.57 25.7401ZM134.01 30.4134C134.256 30.4132 134.455 30.6111 134.455 30.8556V30.9148C134.455 31.1592 134.256 31.3572 134.01 31.357C133.764 31.3567 133.565 31.1584 133.565 30.9139V30.8564C133.565 30.612 133.764 30.4136 134.01 30.4134ZM133.717 35.0983C133.96 35.136 134.126 35.3624 134.088 35.6039L134.079 35.6622C134.041 35.9037 133.813 36.0685 133.57 36.0303C133.327 35.9921 133.161 35.7654 133.2 35.524L133.209 35.4673C133.247 35.2258 133.474 35.0606 133.717 35.0983ZM132.691 39.6798C132.925 39.755 133.054 40.0046 132.978 40.2372L132.96 40.2932C132.884 40.5256 132.632 40.6527 132.398 40.577C132.165 40.5012 132.037 40.2514 132.113 40.019L132.131 39.9646C132.206 39.732 132.457 39.6045 132.691 39.6798ZM76.9044 44.0429C77.1236 43.932 77.3917 44.0186 77.5033 44.2364L77.5294 44.2873C77.6415 44.5049 77.5548 44.7716 77.3359 44.883C77.117 44.9944 76.8487 44.9082 76.7367 44.6906L76.7097 44.6382C76.5981 44.4204 76.6853 44.1538 76.9044 44.0429ZM130.952 44.0429C131.172 44.1538 131.259 44.4204 131.147 44.6382L131.12 44.6906C131.008 44.9082 130.74 44.9944 130.521 44.883C130.302 44.7716 130.215 44.5049 130.327 44.2873L130.354 44.2364C130.465 44.0186 130.733 43.932 130.952 44.0429ZM79.3111 48.0803C79.5101 47.9366 79.7885 47.9805 79.9331 48.1783L79.9669 48.2245C80.1118 48.422 80.0682 48.6989 79.8695 48.8429C79.6708 48.9869 79.3922 48.9436 79.2473 48.7461L79.2125 48.6985C79.068 48.5007 79.1121 48.2239 79.3111 48.0803ZM128.546 48.0803C128.745 48.2239 128.789 48.5007 128.644 48.6985L128.61 48.7461C128.465 48.9436 128.186 48.9869 127.987 48.8429C127.789 48.6989 127.745 48.422 127.89 48.2245L127.924 48.1783C128.068 47.9805 128.347 47.9366 128.546 48.0803ZM82.3223 51.695C82.4963 51.5223 82.7783 51.5225 82.952 51.6956L82.9927 51.736C83.1667 51.9087 83.167 52.1889 82.9933 52.3619C82.8195 52.535 82.5376 52.5352 82.3635 52.3625L82.3217 52.3209C82.1479 52.1479 82.1482 51.8677 82.3223 51.695ZM125.535 51.695C125.709 51.8677 125.709 52.1479 125.535 52.3209L125.493 52.3625C125.319 52.5352 125.037 52.535 124.864 52.3619C124.69 52.1889 124.69 51.9087 124.864 51.736L124.905 51.6956C125.079 51.5225 125.361 51.5223 125.535 51.695ZM85.8625 54.8C86.0074 54.6025 86.286 54.5592 86.4847 54.7032L86.5311 54.7368C86.7301 54.8805 86.7742 55.1573 86.6297 55.3551C86.4852 55.5529 86.2067 55.5967 86.0078 55.4531L85.9599 55.4185C85.7612 55.2744 85.7176 54.9976 85.8625 54.8ZM121.994 54.8C122.139 54.9976 122.096 55.2744 121.897 55.4185L121.849 55.4531C121.65 55.5967 121.372 55.5529 121.227 55.3551C121.083 55.1573 121.127 54.8805 121.326 54.7368L121.372 54.7032C121.571 54.5592 121.849 54.6025 121.994 54.8ZM89.8463 57.3184C89.9583 57.1008 90.2266 57.0147 90.4455 57.1261L90.4967 57.152C90.7159 57.263 90.803 57.5295 90.6914 57.7473C90.5798 57.9652 90.3117 58.0518 90.0926 57.9409L90.0398 57.9141C89.8209 57.8027 89.7342 57.536 89.8463 57.3184ZM118.011 57.3184C118.123 57.536 118.036 57.8027 117.817 57.9141L117.764 57.9409C117.545 58.0518 117.277 57.9652 117.165 57.7473C117.054 57.5295 117.141 57.263 117.36 57.152L117.411 57.1261C117.63 57.0147 117.899 57.1008 118.011 57.3184ZM94.1783 59.1846C94.2544 58.9521 94.5058 58.8251 94.7396 58.9008L94.7943 58.9185C95.0283 58.9938 95.1566 59.2433 95.0809 59.4759C95.0051 59.7085 94.7541 59.836 94.5201 59.7607L94.4637 59.7425C94.2299 59.6668 94.1021 59.417 94.1783 59.1846ZM113.679 59.1846C113.755 59.417 113.627 59.6668 113.393 59.7425L113.337 59.7607C113.103 59.836 112.852 59.7085 112.776 59.4759C112.7 59.2433 112.829 58.9938 113.063 58.9185L113.117 58.9008C113.351 58.8251 113.602 58.9521 113.679 59.1846ZM98.7523 60.3491C98.7907 60.1076 99.0188 59.9428 99.2617 59.981L99.3187 59.9899C99.5617 60.0276 99.7279 60.254 99.6899 60.4955C99.652 60.7371 99.4243 60.9023 99.1813 60.8646L99.1226 60.8554C98.8797 60.8172 98.7139 60.5905 98.7523 60.3491ZM109.105 60.3491C109.143 60.5905 108.977 60.8172 108.734 60.8554L108.676 60.8646C108.433 60.9023 108.205 60.7371 108.167 60.4955C108.129 60.254 108.295 60.0276 108.538 59.9899L108.595 59.981C108.838 59.9428 109.066 60.1076 109.105 60.3491ZM103.454 60.7863C103.454 60.5418 103.654 60.3439 103.9 60.3441H103.957C104.203 60.3439 104.403 60.5418 104.403 60.7863C104.403 61.0307 104.204 61.2291 103.958 61.2293H103.899C103.653 61.2291 103.454 61.0307 103.454 60.7863Z" fill="white"/>
<path d="M104.918 0.983559C104.918 1.52679 104.475 1.96716 103.928 1.96716C103.382 1.96716 102.939 1.52679 102.939 0.983559C102.939 0.44033 103.382 -4.45985e-05 103.928 -4.45511e-05C104.475 -4.45036e-05 104.918 0.44033 104.918 0.983559Z" fill="#6966FF"/>
<path d="M104.918 60.7867C104.918 61.3299 104.475 61.7703 103.928 61.7703C103.382 61.7703 102.939 61.3299 102.939 60.7867C102.939 60.2434 103.382 59.8031 103.928 59.8031C104.475 59.8031 104.918 60.2434 104.918 60.7867Z" fill="#6966FF"/>
<path d="M134.01 31.8688C133.464 31.8688 133.021 31.4284 133.021 30.8852C133.021 30.3419 133.464 29.9016 134.01 29.9016C134.557 29.9016 135 30.3419 135 30.8852C135 31.4284 134.557 31.8688 134.01 31.8688Z" fill="#6966FF"/>
<path fill-rule="evenodd" clip-rule="evenodd" d="M112.573 12.4478H120.779L94.3574 49.2316H86.2871L112.573 12.4478ZM102.932 23.2867L95.1981 12.4478H86.9597L98.897 29.1989L102.932 23.2867ZM100.909 23.3077L98.8675 26.2988L90.1745 14.1002H94.3391L100.909 23.3077ZM89.5071 47.5792H93.5017L117.55 14.1002H113.431L89.5071 47.5792Z" fill="white"/>
<path fill-rule="evenodd" clip-rule="evenodd" d="M114.226 47.4635C114.32 47.5933 114.471 47.6701 114.631 47.6701H118.367L109.412 35.0301C109.212 34.7484 108.794 34.7489 108.595 35.0313L107.136 37.103C107.013 37.2777 107.015 37.5113 107.14 37.6843L114.226 47.4635ZM104.892 37.4087L113.525 49.3226H121.571L108.999 31.5768L104.892 37.4087Z" fill="url(#paint0_linear_2352_29123)"/>
<path fill-rule="evenodd" clip-rule="evenodd" d="M28.2175 12.4478H21.1639V23.3929C19.1267 22.3096 16.7879 21.6936 14.3008 21.6936C6.40429 21.6936 0.00292969 27.9029 0.00292969 35.5624C0.00292969 43.222 6.40429 49.4313 14.3008 49.4313C16.7879 49.4313 19.1267 48.8153 21.1639 47.732V49.101H28.2175V12.4478ZM22.3233 35.4894C22.3233 39.8275 18.6978 43.3443 14.2255 43.3443C9.75311 43.3443 6.12756 39.8275 6.12756 35.4894C6.12756 31.1512 9.75311 27.6345 14.2255 27.6345C18.6978 27.6345 22.3233 31.1512 22.3233 35.4894ZM56.7979 12.4478L30.5688 49.1011H38.7917L64.9955 12.4478H56.7979ZM77.2572 12.4478H84.3109V49.101H77.2572V47.732C75.22 48.8153 72.8812 49.4313 70.3941 49.4313C62.4976 49.4313 56.0962 43.222 56.0962 35.5624C56.0962 27.9029 62.4976 21.6936 70.3941 21.6936C72.8812 21.6936 75.22 22.3096 77.2572 23.3929V12.4478ZM70.3188 43.3443C74.7911 43.3443 78.4167 39.8275 78.4167 35.4894C78.4167 31.1512 74.7911 27.6345 70.3188 27.6345C65.8464 27.6345 62.2209 31.1512 62.2209 35.4894C62.2209 39.8275 65.8464 43.3443 70.3188 43.3443ZM47.0274 23.5755L38.7981 12.4478H30.233L42.4929 29.794L47.0274 23.5755Z" fill="white"/>
<defs>
<linearGradient id="paint0_linear_2352_29123" x1="115.337" y1="46.5295" x2="102.143" y2="28.2916" gradientUnits="userSpaceOnUse">
<stop stop-color="#6966FF"/>
<stop offset="1" stop-color="#6966FF" stop-opacity="0.36"/>
</linearGradient>
</defs>
</svg>
