<svg width="21" height="22" viewBox="0 0 21 22" fill="none" xmlns="http://www.w3.org/2000/svg">
<path fill-rule="evenodd" clip-rule="evenodd" d="M13.3839 4.71851H16.1484L7.24785 17.1842H4.5293L13.3839 4.71851ZM10.1363 8.39172L7.53106 4.71851H4.75586L8.77706 10.3953L10.1363 8.39172ZM9.45482 8.39882L8.76713 9.41248L5.83881 5.27851H7.2417L9.45482 8.39882ZM5.61397 16.6242H6.9596L15.0604 5.27851H13.673L5.61397 16.6242Z" fill="white"/>
<path fill-rule="evenodd" clip-rule="evenodd" d="M13.9918 16.6549H15.3362L12.1817 12.1756L11.4837 13.1728L13.9918 16.6549ZM10.7969 13.1774L13.705 17.2149H16.4155L12.1803 11.201L10.7969 13.1774Z" fill="url(#paint0_linear_2352_22818)"/>
<path fill-rule="evenodd" clip-rule="evenodd" d="M10.4703 14.4014C10.5532 14.4014 10.6203 14.4685 10.6203 14.5514L10.6203 14.5615C10.6203 14.6443 10.5532 14.7115 10.4703 14.7115C10.3875 14.7115 10.3203 14.6443 10.3203 14.5615L10.3203 14.5514C10.3203 14.4685 10.3875 14.4014 10.4703 14.4014ZM10.4703 16.0325C10.5532 16.0325 10.6203 16.0997 10.6203 16.1825L10.6203 16.2028C10.6203 16.2857 10.5532 16.3528 10.4703 16.3528C10.3875 16.3528 10.3203 16.2857 10.3203 16.2028L10.3203 16.1825C10.3203 16.0997 10.3875 16.0325 10.4703 16.0325ZM10.4703 17.6739C10.5532 17.6739 10.6203 17.741 10.6203 17.8239L10.6203 17.8441C10.6203 17.927 10.5532 17.9941 10.4703 17.9941C10.3875 17.9941 10.3203 17.927 10.3203 17.8441L10.3203 17.8239C10.3203 17.741 10.3875 17.6739 10.4703 17.6739ZM10.4703 19.3152C10.5532 19.3152 10.6203 19.3823 10.6203 19.4652L10.6203 19.4854C10.6203 19.5683 10.5532 19.6354 10.4703 19.6354C10.3875 19.6354 10.3203 19.5683 10.3203 19.4854L10.3203 19.4652C10.3203 19.3823 10.3875 19.3152 10.4703 19.3152ZM10.4703 20.9565C10.5532 20.9565 10.6203 21.0236 10.6203 21.1065L10.6203 21.1166C10.6203 21.1995 10.5532 21.2666 10.4703 21.2666C10.3875 21.2666 10.3203 21.1995 10.3203 21.1166L10.3203 21.1065C10.3203 21.0236 10.3875 20.9565 10.4703 20.9565Z" fill="#55555E"/>
<path fill-rule="evenodd" clip-rule="evenodd" d="M10.4703 2.2085C10.5532 2.2085 10.6203 2.27565 10.6203 2.3585L10.6203 2.36799C10.6203 2.45083 10.5532 2.51799 10.4703 2.51799C10.3875 2.51799 10.3203 2.45083 10.3203 2.36799L10.3203 2.3585C10.3203 2.27565 10.3875 2.2085 10.4703 2.2085ZM10.4703 3.73703C10.5532 3.73703 10.6203 3.80418 10.6203 3.88703L10.6203 3.90602C10.6203 3.98886 10.5532 4.05602 10.4703 4.05602C10.3875 4.05602 10.3203 3.98886 10.3203 3.90602L10.3203 3.88703C10.3203 3.80418 10.3875 3.73703 10.4703 3.73703ZM10.4703 5.27505C10.5532 5.27505 10.6203 5.34221 10.6203 5.42505L10.6203 5.44404C10.6203 5.52688 10.5532 5.59404 10.4703 5.59404C10.3875 5.59404 10.3203 5.52688 10.3203 5.44404L10.3203 5.42505C10.3203 5.34221 10.3875 5.27505 10.4703 5.27505ZM10.4703 6.81308C10.5532 6.81308 10.6203 6.88023 10.6203 6.96308L10.6203 6.97257C10.6203 7.05541 10.5532 7.12257 10.4703 7.12257C10.3875 7.12257 10.3203 7.05541 10.3203 6.97257L10.3203 6.96308C10.3203 6.88023 10.3875 6.81308 10.4703 6.81308Z" fill="#55555E"/>
<path fill-rule="evenodd" clip-rule="evenodd" d="M20.7617 10.975C20.7617 11.0578 20.6946 11.125 20.6117 11.125L20.6026 11.125C20.5198 11.125 20.4526 11.0578 20.4526 10.975C20.4526 10.8921 20.5198 10.825 20.6026 10.825L20.6117 10.825C20.6946 10.825 20.7617 10.8921 20.7617 10.975ZM19.3006 10.975C19.3006 11.0578 19.2334 11.125 19.1506 11.125L19.1324 11.125C19.0496 11.125 18.9824 11.0578 18.9824 10.975C18.9824 10.8921 19.0496 10.825 19.1324 10.825L19.1506 10.825C19.2334 10.825 19.3006 10.8921 19.3006 10.975ZM17.8303 10.975C17.8303 11.0578 17.7632 11.125 17.6803 11.125L17.6622 11.125C17.5793 11.125 17.5122 11.0578 17.5122 10.975C17.5122 10.8921 17.5793 10.825 17.6622 10.825L17.6803 10.825C17.7632 10.825 17.8303 10.8921 17.8303 10.975ZM16.3601 10.975C16.3601 11.0578 16.2929 11.125 16.2101 11.125L16.1919 11.125C16.1091 11.125 16.0419 11.0578 16.0419 10.975C16.0419 10.8921 16.1091 10.825 16.1919 10.825L16.2101 10.825C16.2929 10.825 16.3601 10.8921 16.3601 10.975ZM14.8899 10.975C14.8899 11.0578 14.8227 11.125 14.7399 11.125L14.7217 11.125C14.6389 11.125 14.5717 11.0578 14.5717 10.975C14.5717 10.8921 14.6389 10.825 14.7217 10.825L14.7399 10.825C14.8227 10.825 14.8899 10.8921 14.8899 10.975ZM13.4196 10.975C13.4196 11.0578 13.3525 11.125 13.2696 11.125L13.2605 11.125C13.1777 11.125 13.1105 11.0578 13.1105 10.975C13.1105 10.8921 13.1777 10.825 13.2605 10.825L13.2696 10.825C13.3525 10.825 13.4196 10.8921 13.4196 10.975Z" fill="#55555E"/>
<path fill-rule="evenodd" clip-rule="evenodd" d="M7.89453 10.975C7.89453 11.0578 7.82737 11.125 7.74453 11.125H7.73538C7.65253 11.125 7.58538 11.0578 7.58538 10.975C7.58538 10.8921 7.65253 10.825 7.73538 10.825H7.74453C7.82737 10.825 7.89453 10.8921 7.89453 10.975ZM6.4206 10.975C6.4206 11.0578 6.35344 11.125 6.2706 11.125H6.25229C6.16945 11.125 6.10229 11.0578 6.10229 10.975C6.10229 10.8921 6.16945 10.825 6.25229 10.825H6.2706C6.35344 10.825 6.4206 10.8921 6.4206 10.975ZM4.93752 10.975C4.93752 11.0578 4.87036 11.125 4.78752 11.125H4.76921C4.68637 11.125 4.61921 11.0578 4.61921 10.975C4.61921 10.8921 4.68637 10.825 4.76921 10.825H4.78752C4.87036 10.825 4.93752 10.8921 4.93752 10.975ZM3.45443 10.975C3.45443 11.0578 3.38728 11.125 3.30443 11.125H3.28612C3.20328 11.125 3.13612 11.0578 3.13612 10.975C3.13612 10.8921 3.20328 10.825 3.28612 10.825H3.30443C3.38728 10.825 3.45443 10.8921 3.45443 10.975ZM1.97135 10.975C1.97135 11.0578 1.90419 11.125 1.82135 11.125H1.80304C1.7202 11.125 1.65304 11.0578 1.65304 10.975C1.65304 10.8921 1.7202 10.825 1.80304 10.825H1.82135C1.90419 10.825 1.97135 10.8921 1.97135 10.975ZM0.488265 10.975C0.488265 11.0578 0.421108 11.125 0.338265 11.125H0.32911C0.246267 11.125 0.17911 11.0578 0.17911 10.975C0.17911 10.8921 0.246267 10.825 0.32911 10.825H0.338265C0.421108 10.825 0.488265 10.8921 0.488265 10.975Z" fill="#55555E"/>
<path fill-rule="evenodd" clip-rule="evenodd" d="M10.4618 0.68335H10.4818C10.5647 0.683429 10.6318 0.75065 10.6317 0.833493C10.6316 0.916335 10.5644 0.983429 10.4815 0.983349H10.4621C10.3792 0.983429 10.312 0.916335 10.3119 0.833493C10.3118 0.75065 10.3789 0.683429 10.4618 0.68335ZM9.04402 0.932025C9.0568 1.01388 9.00081 1.09059 8.91896 1.10337L8.89977 1.10639C8.81794 1.11933 8.74112 1.06349 8.72818 0.981661C8.71524 0.899835 8.77108 0.823011 8.85291 0.81007L8.87268 0.806963C8.95453 0.794182 9.03124 0.850174 9.04402 0.932025ZM11.8996 0.932025C11.9124 0.850174 11.9891 0.794182 12.0709 0.806963L12.0907 0.81007C12.1725 0.823011 12.2284 0.899835 12.2154 0.981661C12.2025 1.06349 12.1257 1.11933 12.0438 1.10639L12.0247 1.10337C11.9428 1.09059 11.8868 1.01388 11.8996 0.932025ZM13.4522 1.27756C13.4777 1.19875 13.5623 1.15553 13.6411 1.18104L13.6601 1.18721C13.7389 1.21287 13.7819 1.29753 13.7563 1.3763C13.7306 1.45506 13.6459 1.49811 13.5672 1.47245L13.5487 1.46646C13.4699 1.44095 13.4267 1.35638 13.4522 1.27756ZM7.49141 1.27756C7.51692 1.35638 7.4737 1.44095 7.39488 1.46646L7.37645 1.47245C7.29768 1.49811 7.21302 1.45506 7.18736 1.3763C7.1617 1.29753 7.20475 1.21287 7.28351 1.18721L7.30251 1.18104C7.38133 1.15553 7.4659 1.19875 7.49141 1.27756ZM14.9308 1.86336C14.9684 1.78954 15.0587 1.76018 15.1326 1.79778L15.1503 1.80685C15.2241 1.84459 15.2533 1.93497 15.2155 2.00871C15.1778 2.08246 15.0874 2.11165 15.0137 2.07391L14.9964 2.0651C14.9226 2.0275 14.8932 1.93718 14.9308 1.86336ZM6.01278 1.86336C6.05038 1.93718 6.02102 2.0275 5.9472 2.0651L5.92995 2.07391C5.85621 2.11165 5.76583 2.08246 5.72809 2.00871C5.69035 1.93497 5.71953 1.84459 5.79328 1.80685L5.81104 1.79778C5.88486 1.76018 5.97519 1.78954 6.01278 1.86336ZM4.64456 2.67407C4.69324 2.7411 4.67837 2.83491 4.61134 2.88359L4.59569 2.89498C4.52875 2.94379 4.43492 2.9291 4.38611 2.86217C4.3373 2.79523 4.35199 2.7014 4.41892 2.65259L4.43504 2.64086C4.50207 2.59217 4.59587 2.60705 4.64456 2.67407ZM16.2991 2.67407C16.3477 2.60705 16.4415 2.59217 16.5086 2.64086L16.5247 2.65259C16.5916 2.7014 16.6063 2.79523 16.5575 2.86217C16.5087 2.9291 16.4149 2.94379 16.3479 2.89498L16.3323 2.88359C16.2652 2.83491 16.2504 2.7411 16.2991 2.67407ZM3.41958 3.68842C3.4781 3.74706 3.47801 3.84203 3.41937 3.90055L3.40568 3.91424C3.34716 3.97288 3.25218 3.97297 3.19355 3.91445C3.13491 3.85593 3.13482 3.76095 3.19334 3.70232L3.20744 3.68822C3.26608 3.62969 3.36105 3.62979 3.41958 3.68842ZM17.524 3.68842C17.5826 3.62979 17.6775 3.62969 17.7362 3.68822L17.7503 3.70232C17.8088 3.76095 17.8087 3.85593 17.7501 3.91445C17.6914 3.97297 17.5965 3.97288 17.5379 3.91424L17.5242 3.90055C17.4656 3.84203 17.4655 3.74706 17.524 3.68842ZM2.36729 4.88098C2.43423 4.92979 2.44892 5.02363 2.40011 5.09056L2.38872 5.10621C2.34003 5.17324 2.24623 5.18811 2.1792 5.13943C2.11217 5.09075 2.0973 4.99694 2.14598 4.92991L2.15772 4.91379C2.20653 4.84686 2.30036 4.83217 2.36729 4.88098ZM18.5763 4.88098C18.6433 4.83217 18.7371 4.84686 18.7859 4.91379L18.7976 4.92991C18.8463 4.99694 18.8314 5.09075 18.7644 5.13943C18.6974 5.18811 18.6036 5.17324 18.5549 5.10621L18.5435 5.09056C18.4947 5.02363 18.5094 4.92979 18.5763 4.88098ZM19.4298 6.22296C19.5035 6.18522 19.5939 6.21441 19.6316 6.28815L19.6407 6.30592C19.6783 6.37974 19.6489 6.47006 19.5751 6.50766C19.5013 6.54525 19.411 6.51589 19.3734 6.44207L19.3646 6.42483C19.3268 6.35108 19.356 6.2607 19.4298 6.22296ZM1.51384 6.22296C1.58759 6.2607 1.61677 6.35108 1.57903 6.42483L1.57023 6.44207C1.53263 6.51589 1.44231 6.54525 1.36849 6.50766C1.29467 6.47006 1.26531 6.37974 1.3029 6.30592L1.31197 6.28815C1.34971 6.21441 1.44009 6.18522 1.51384 6.22296ZM0.881422 7.68223C0.96019 7.7079 1.00324 7.79255 0.977577 7.87132L0.971589 7.88976C0.946081 7.96858 0.861508 8.01179 0.78269 7.98628C0.703872 7.96077 0.660657 7.8762 0.686165 7.79738L0.692334 7.77839C0.717997 7.69962 0.802655 7.65657 0.881422 7.68223ZM20.0622 7.68223C20.141 7.65657 20.2256 7.69962 20.2513 7.77839L20.2574 7.79738C20.283 7.8762 20.2397 7.96077 20.1609 7.98628C20.0821 8.01179 19.9975 7.96858 19.972 7.88976L19.966 7.87132C19.9404 7.79255 19.9834 7.70789 20.0622 7.68223ZM0.486788 9.22305C0.568613 9.23599 0.624455 9.31282 0.611514 9.39464L0.608498 9.41383C0.595717 9.49568 0.519002 9.55168 0.437152 9.53889C0.355301 9.52611 0.299309 9.4494 0.31209 9.36755L0.315197 9.34778C0.328138 9.26595 0.404962 9.21011 0.486788 9.22305ZM20.4568 9.22305C20.5386 9.21011 20.6155 9.26595 20.6284 9.34778L20.6315 9.36755C20.6443 9.4494 20.5883 9.52611 20.5065 9.5389C20.4246 9.55168 20.3479 9.49568 20.3351 9.41383L20.3321 9.39464C20.3192 9.31282 20.375 9.23599 20.4568 9.22305ZM0.33862 10.8068C0.421462 10.8069 0.488555 10.8741 0.488476 10.9569V10.9764C0.488555 11.0593 0.421462 11.1265 0.33862 11.1266C0.255777 11.1266 0.188556 11.0595 0.188477 10.9767V10.9567C0.188556 10.8738 0.255777 10.8067 0.33862 10.8068ZM20.605 10.8068C20.6878 10.8067 20.7551 10.8738 20.7551 10.9567V10.9767C20.7551 11.0595 20.6878 11.1266 20.605 11.1266C20.5221 11.1265 20.4551 11.0593 20.4551 10.9764V10.9569C20.4551 10.8741 20.5221 10.8069 20.605 10.8068ZM0.437152 12.3945C0.519002 12.3817 0.595717 12.4377 0.608498 12.5195L0.611514 12.5387C0.624455 12.6205 0.568613 12.6974 0.486788 12.7103C0.404962 12.7232 0.328138 12.6674 0.315197 12.5856L0.31209 12.5658C0.299309 12.484 0.355301 12.4072 0.437152 12.3945ZM20.5065 12.3945C20.5883 12.4072 20.6443 12.484 20.6315 12.5658L20.6284 12.5856C20.6155 12.6674 20.5386 12.7232 20.4568 12.7103C20.375 12.6974 20.3192 12.6205 20.3321 12.5387L20.3351 12.5195C20.3479 12.4377 20.4246 12.3817 20.5065 12.3945ZM0.78269 13.9471C0.861508 13.9216 0.946081 13.9648 0.97159 14.0436L0.977577 14.062C1.00324 14.1408 0.96019 14.2255 0.881422 14.2511C0.802655 14.2768 0.717997 14.2337 0.692334 14.155L0.686166 14.136C0.660657 14.0572 0.703872 13.9726 0.78269 13.9471ZM20.1609 13.9471C20.2397 13.9726 20.283 14.0572 20.2574 14.136L20.2513 14.155C20.2256 14.2337 20.141 14.2768 20.0622 14.2511C19.9834 14.2255 19.9404 14.1408 19.966 14.062L19.972 14.0436C19.9975 13.9648 20.0821 13.9216 20.1609 13.9471ZM1.36849 15.4257C1.44231 15.3881 1.53263 15.4175 1.57023 15.4913L1.57903 15.5085C1.61677 15.5823 1.58759 15.6727 1.51384 15.7104C1.44009 15.7481 1.34972 15.719 1.31197 15.6452L1.3029 15.6274C1.26531 15.5536 1.29467 15.4633 1.36849 15.4257ZM19.5751 15.4257C19.6489 15.4633 19.6783 15.5536 19.6407 15.6274L19.6316 15.6452C19.5939 15.719 19.5035 15.7481 19.4298 15.7104C19.356 15.6727 19.3268 15.5823 19.3646 15.5085L19.3734 15.4913C19.411 15.4175 19.5013 15.3881 19.5751 15.4257ZM2.1792 16.7939C2.24623 16.7452 2.34003 16.7601 2.38872 16.8271L2.40011 16.8428C2.44892 16.9097 2.43423 17.0036 2.36729 17.0524C2.30036 17.1012 2.20653 17.0865 2.15772 17.0196L2.14598 17.0034C2.0973 16.9364 2.11217 16.8426 2.1792 16.7939ZM18.7644 16.7939C18.8314 16.8426 18.8463 16.9364 18.7976 17.0034L18.7859 17.0196C18.7371 17.0865 18.6433 17.1012 18.5763 17.0524C18.5094 17.0036 18.4947 16.9097 18.5435 16.8428L18.5549 16.8271C18.6036 16.7601 18.6974 16.7452 18.7644 16.7939ZM3.19355 18.0189C3.25218 17.9604 3.34716 17.9605 3.40568 18.0191L3.41937 18.0328C3.47801 18.0913 3.4781 18.1863 3.41958 18.2449C3.36105 18.3036 3.26608 18.3037 3.20744 18.2451L3.19334 18.231C3.13482 18.1724 3.13491 18.0774 3.19355 18.0189ZM17.7501 18.0189C17.8087 18.0774 17.8088 18.1724 17.7503 18.231L17.7362 18.2451C17.6775 18.3037 17.5826 18.3036 17.524 18.2449C17.4655 18.1863 17.4656 18.0913 17.5242 18.0328L17.5379 18.0191C17.5965 17.9605 17.6914 17.9604 17.7501 18.0189ZM4.38611 19.0712C4.43492 19.0043 4.52875 18.9896 4.59569 19.0384L4.61134 19.0498C4.67837 19.0984 4.69324 19.1923 4.64456 19.2593C4.59587 19.3263 4.50207 19.3412 4.43504 19.2925L4.41892 19.2808C4.35199 19.232 4.3373 19.1381 4.38611 19.0712ZM16.5575 19.0712C16.6063 19.1381 16.5916 19.232 16.5247 19.2808L16.5086 19.2925C16.4415 19.3412 16.3477 19.3263 16.2991 19.2593C16.2504 19.1923 16.2652 19.0985 16.3323 19.0498L16.3479 19.0384C16.4149 18.9896 16.5087 19.0043 16.5575 19.0712ZM5.72809 19.9246C5.76583 19.8509 5.85621 19.8217 5.92995 19.8595L5.9472 19.8683C6.02102 19.9059 6.05038 19.9962 6.01278 20.07C5.97519 20.1438 5.88486 20.1732 5.81104 20.1356L5.79328 20.1265C5.71953 20.0888 5.69035 19.9984 5.72809 19.9246ZM15.2155 19.9246C15.2533 19.9984 15.2241 20.0888 15.1503 20.1265L15.1326 20.1356C15.0587 20.1732 14.9684 20.1438 14.9308 20.07C14.8932 19.9962 14.9226 19.9059 14.9964 19.8683L15.0137 19.8595C15.0874 19.8217 15.1778 19.8509 15.2155 19.9246ZM7.18736 20.5571C7.21302 20.4783 7.29768 20.4352 7.37645 20.4609L7.39489 20.4669C7.4737 20.4924 7.51692 20.577 7.49141 20.6558C7.4659 20.7346 7.38133 20.7778 7.30251 20.7523L7.28351 20.7462C7.20475 20.7205 7.1617 20.6358 7.18736 20.5571ZM13.7563 20.5571C13.7819 20.6358 13.7389 20.7205 13.6601 20.7462L13.6411 20.7523C13.5623 20.7778 13.4777 20.7346 13.4522 20.6558C13.4267 20.577 13.4699 20.4924 13.5487 20.4669L13.5672 20.4609C13.6459 20.4352 13.7306 20.4783 13.7563 20.5571ZM8.72818 20.9517C8.74112 20.8699 8.81794 20.814 8.89977 20.827L8.91896 20.83C9.00081 20.8428 9.0568 20.9195 9.04402 21.0013C9.03124 21.0832 8.95453 21.1392 8.87268 21.1264L8.85291 21.1233C8.77108 21.1103 8.71524 21.0335 8.72818 20.9517ZM12.2154 20.9517C12.2284 21.0335 12.1725 21.1103 12.0907 21.1233L12.0709 21.1264C11.9891 21.1392 11.9124 21.0832 11.8996 21.0013C11.8868 20.9195 11.9428 20.8428 12.0246 20.83L12.0438 20.827C12.1257 20.814 12.2025 20.8699 12.2154 20.9517ZM10.3119 21.0999C10.312 21.017 10.3792 20.9499 10.4621 20.95H10.4815C10.5644 20.9499 10.6316 21.017 10.6317 21.0999C10.6318 21.1827 10.5647 21.2499 10.4818 21.25H10.4618C10.3789 21.2499 10.3118 21.1827 10.3119 21.0999Z" fill="white"/>
<path d="M10.8047 0.833293C10.8047 1.01739 10.6554 1.16663 10.4714 1.16663V1.16663C10.2873 1.16663 10.138 1.01739 10.138 0.833293V0.833293C10.138 0.649198 10.2873 0.499959 10.4714 0.499959V0.499959C10.6554 0.499959 10.8047 0.649198 10.8047 0.833293V0.833293Z" fill="#6966FF"/>
<path d="M10.8047 21.0999C10.8047 21.284 10.6554 21.4332 10.4714 21.4332V21.4332C10.2873 21.4332 10.138 21.284 10.138 21.0999V21.0999C10.138 20.9158 10.2873 20.7666 10.4714 20.7666V20.7666C10.6554 20.7666 10.8047 20.9158 10.8047 21.0999V21.0999Z" fill="#6966FF"/>
<path d="M20.6048 11.3C20.4207 11.3 20.2715 11.1508 20.2715 10.9667V10.9667C20.2715 10.7826 20.4207 10.6334 20.6048 10.6334V10.6334C20.7889 10.6334 20.9382 10.7826 20.9382 10.9667V10.9667C20.9382 11.1508 20.7889 11.3 20.6048 11.3V11.3Z" fill="#6966FF"/>
<path d="M0.338216 11.3C0.154121 11.3 0.00488283 11.1508 0.00488286 10.9667V10.9667C0.00488288 10.7826 0.154121 10.6334 0.338216 10.6334V10.6334C0.522311 10.6334 0.67155 10.7826 0.67155 10.9667V10.9667C0.67155 11.1508 0.522311 11.3 0.338216 11.3V11.3Z" fill="#6966FF"/>
<defs>
<linearGradient id="paint0_linear_2352_22818" x1="14.3157" y1="16.2684" x2="9.83603" y2="10.1133" gradientUnits="userSpaceOnUse">
<stop stop-color="#6966FF"/>
<stop offset="1" stop-color="#6966FF" stop-opacity="0.36"/>
</linearGradient>
</defs>
</svg>
